HIERARCHY
ROOT Hips
{
	OFFSET 0.00000 0.00000 0.00000
	CHANNELS 6 Xposition Yposition Zposition Zrotation Yrotation Xrotation 
	JOINT LHipJoint
	{
		OFFSET 0 0 0
		CHANNELS 3 Zrotation Yrotation Xrotation
		JOINT LeftHip
		{
			OFFSET 1.40252 -1.71424 0.59123
			CHANNELS 3 Zrotation Yrotation Xrotation
			JOINT LeftKnee
			{
				OFFSET 2.50071 -6.87065 0.00000
				CHANNELS 3 Zrotation Yrotation Xrotation
				JOINT LeftAnkle
				{
					OFFSET 2.50834 -6.89162 0.00000
					CHANNELS 3 Zrotation Yrotation Xrotation
					JOINT LeftToe
					{
						OFFSET 0.21528 -0.59149 1.64448
						CHANNELS 3 Zrotation Yrotation Xrotation
						End Site
						{
							OFFSET 0.00000 -0.00000 0.87921
						}
					}
				}
			}
		}
	}
	JOINT RHipJoint
	{
		OFFSET 0 0 0
		CHANNELS 3 Zrotation Yrotation Xrotation
		JOINT RightHip
		{
			OFFSET -1.53651 -1.71424 0.59123
			CHANNELS 3 Zrotation Yrotation Xrotation
			JOINT RightKnee
			{
				OFFSET -2.45783 -6.75285 0.00000
				CHANNELS 3 Zrotation Yrotation Xrotation
				JOINT RightAnkle
				{
					OFFSET -2.51921 -6.92147 0.00000
					CHANNELS 3 Zrotation Yrotation Xrotation
					JOINT RightToe
					{
						OFFSET -0.21777 -0.59831 1.59676
						CHANNELS 3 Zrotation Yrotation Xrotation
						End Site
						{
							OFFSET -0.00000 -0.00000 0.85779
						}
					}
				}
			}
		}
	}
	JOINT lowerback
	{
		OFFSET 0 0 0
		CHANNELS 3 Zrotation Yrotation Xrotation
		JOINT Chest
		{
			OFFSET 0.02212 2.07622 0.03776
			CHANNELS 3 Zrotation Yrotation Xrotation
			JOINT Chest2
			{
				OFFSET -0.00949 2.08009 -0.00123
				CHANNELS 3 Zrotation Yrotation Xrotation
				JOINT lowerneck
				{
					OFFSET 0 0 0
					CHANNELS 3 Zrotation Yrotation Xrotation
					JOINT Neck
					{
						OFFSET 0.00288 1.67184 0.11155
						CHANNELS 3 Zrotation Yrotation Xrotation
						JOINT Head
						{
							OFFSET -0.02412 1.66997 -0.22040
							CHANNELS 3 Zrotation Yrotation Xrotation
							End Site
							{
								OFFSET -0.01026 1.69043 -0.08683
							}
						}
					}
				}
				JOINT LeftCollar
				{
					OFFSET 0 0 0
					CHANNELS 3 Zrotation Yrotation Xrotation
					JOINT LeftShoulder
					{
						OFFSET 3.97941 0.74048 0.81462
CHANNELS 3 Zrotation Xrotation Yrotation
						JOINT LeftElbow
						{
OFFSET 0 -5.018340 -0.000000
CHANNELS 3 Zrotation Xrotation Yrotation
							JOINT LeftWrist
							{
OFFSET 0 -3.486900 0.000000
CHANNELS 3 Zrotation Xrotation Yrotation
								JOINT lhand
								{
									OFFSET 0 0 0
CHANNELS 3 Zrotation Xrotation Yrotation
									JOINT LFingers
									{
OFFSET 0 -0.767990 0.000000
CHANNELS 3 Zrotation Xrotation Yrotation
										End Site
										{
OFFSET 0 -0.619170 0.000000
										}
									}
								}
								JOINT LThumb
								{
OFFSET 0 0.000000 0.000000
CHANNELS 3 Zrotation Xrotation Yrotation
									End Site
									{
OFFSET 0 -0.628630 0.628630
									}
								}
							}
						}
					}
				}
				JOINT RightCollar
				{
					OFFSET 0 0 0
					CHANNELS 3 Zrotation Yrotation Xrotation
					JOINT RightShoulder
					{
						OFFSET -3.88702 1.02123 0.44091
CHANNELS 3 Zrotation Xrotation Yrotation
						JOINT RightElbow
						{
OFFSET 0 -4.701640 0.000000
CHANNELS 3 Zrotation Xrotation Yrotation
							JOINT RightWrist
							{
OFFSET 0 -3.499110 0.000000
CHANNELS 3 Zrotation Xrotation Yrotation
								JOINT rhand
								{
									OFFSET 0 0 0
CHANNELS 3 Zrotation Xrotation Yrotation
									JOINT RFingers
									{
OFFSET 0 -0.739330 0.000000
CHANNELS 3 Zrotation Xrotation Yrotation
										End Site
										{
OFFSET 0 -0.596070 0.000000
										}
									}
								}
								JOINT RThumb
								{
OFFSET 0 0.000000 0.000000
CHANNELS 3 Zrotation Xrotation Yrotation
									End Site
									{
OFFSET 0 -0.605170 0.605170
									}
								}
							}
						}
					}
				}
			}
		}
	}
}
MOTION
Frames: 10
Frame Time: 0.008333333333333333
5.209750 16.636743 -11.705858 569.462018 -75.606510 164.874284 0.000000 0.000000 0.000000 -18.058079 5.274873 -46.312985 7.971911 16.098478 52.461330 0.649183 15.482583 -27.565186 0.574594 4.854365 13.493660 0.000000 0.000000 0.000000 21.590334 -3.792766 -2.752976 -1.813499 -8.465788 24.138362 0.171921 -14.193829 -18.090487 -0.791313 5.678180 -15.853567 6.482866 1.865631 -7.896783 0.949703 1.858879 -2.895038 -2.483028 0.861612 1.597361 13.409910 15.234565 -0.050756 -13.965970 21.792604 13.750715 -4.712876 10.444485 7.246208 0.000000 0.000000 0.000000 -6.034195 6.650044 -58.779540 103.364225 -59.314216 71.547074 14.132780 -14.963479 -50.301690 0.000000 0.000000 0.000000 -7.125000 0.000000 0.000000 -55.676362 75.525735 42.631943 0.000000 0.000000 0.000000 -18.962284 3.696421 23.173225 -134.525312 -50.998592 -97.392899 -48.524622 26.327911 -0.333128 0.000000 0.000000 0.000000 7.125000 0.000000 0.000000 -17.020455 29.254766 -6.806998
5.030544 16.656843 -11.700849 592.472098 -83.462835 140.216661 0.000000 0.000000 0.000000 -22.050172 7.483193 -40.062692 5.829749 14.249189 44.271661 1.423903 11.278614 -29.137487 0.027673 1.044574 2.871785 0.000000 0.000000 0.000000 20.329539 -7.880159 -4.177728 -2.774354 -10.304234 29.982843 0.395234 -14.082574 -14.478077 -0.385611 3.934641 -10.899877 4.757323 2.526656 -8.997922 0.650481 2.821686 -2.968227 -1.691494 1.360329 2.153522 12.037456 12.765764 -1.487410 -11.982317 18.247654 16.183102 -4.265461 8.676406 7.429774 0.000000 0.000000 0.000000 -2.932671 9.760081 -63.147632 101.808179 -59.466393 70.207855 12.925324 -14.610400 -52.046763 0.000000 0.000000 0.000000 -7.125000 0.000000 0.000000 -62.756685 75.772813 49.087211 0.000000 0.000000 0.000000 -19.108961 -1.960511 26.459919 -133.223578 -51.608897 -96.376766 -48.040041 26.086248 -2.409247 0.000000 0.000000 0.000000 7.125000 0.000000 0.000000 -16.152810 26.296008 -7.610140
4.875616 16.735820 -11.632187 703.977444 -84.163278 26.445914 0.000000 0.000000 0.000000 -26.225546 4.332797 -32.155656 4.350622 12.611560 37.933407 1.729971 6.605825 -27.984995 0.000235 0.083467 0.229337 0.000000 0.000000 0.000000 16.499644 -12.486140 -9.842866 -5.670000 -14.066615 43.576359 0.704473 -14.922666 -8.163910 -0.319973 -3.333093 9.235153 1.586357 2.338115 -8.334661 -0.072026 2.917534 -2.505021 -0.670548 1.430189 2.158097 8.779793 10.161108 -4.253912 -9.687532 14.536458 18.719760 -3.322775 6.708899 7.826864 0.000000 0.000000 0.000000 0.218444 10.663317 -65.391360 100.834159 -59.551211 69.368493 7.655226 -19.481860 -54.642271 0.000000 0.000000 0.000000 -7.125000 0.000000 0.000000 -74.477286 74.507318 58.477836 0.000000 0.000000 0.000000 -16.988012 -7.189756 29.095124 -129.922623 -53.022862 -93.763062 -49.084574 27.084092 -4.824392 0.000000 0.000000 0.000000 7.125000 0.000000 0.000000 -16.301662 22.692614 -9.116130
4.729661 16.839924 -11.572355 724.378387 -75.658471 4.255810 0.000000 0.000000 0.000000 -28.642057 2.392168 -26.398616 3.646767 11.669478 34.579414 1.846955 2.221608 -26.576354 0.003412 -0.372678 -1.023949 0.000000 0.000000 0.000000 13.876396 -15.104866 -17.550707 -10.055104 -17.420103 59.644657 0.703741 -14.931867 -2.479100 -0.882709 -5.958897 16.674270 0.063716 2.855896 -7.597674 -0.957876 3.782474 -1.970610 -0.665357 1.869624 2.285544 5.827075 6.910378 -6.521900 -7.719453 10.058159 20.942066 -2.606025 4.422791 8.243051 0.000000 0.000000 0.000000 4.278285 10.746044 -66.598923 99.027787 -59.689727 67.810132 3.109281 -21.765369 -54.343134 0.000000 0.000000 0.000000 -7.125000 0.000000 0.000000 -75.180763 72.793182 57.161736 0.000000 0.000000 0.000000 -15.012478 -8.781958 30.719896 -126.469803 -54.320923 -90.981042 -47.093128 30.934983 -5.635760 0.000000 0.000000 0.000000 7.125000 0.000000 0.000000 -14.734312 21.812417 -8.488355
4.653765 16.938131 -11.544908 722.876841 -67.560202 5.612922 0.000000 0.000000 0.000000 -28.506988 3.427534 -23.443758 2.821377 10.399335 30.280560 1.739356 -3.578850 -24.062913 0.054517 -1.488562 -4.094492 0.000000 0.000000 0.000000 14.592293 -12.271164 -25.343817 -13.202437 -18.852908 69.751942 0.511016 -12.612763 -3.327717 -0.798873 -5.700477 15.918964 1.088304 3.892866 -8.063704 -1.879136 5.114795 -1.788711 -2.007643 2.545545 2.922987 4.439032 3.694145 -7.258883 -6.287633 5.530457 21.676793 -2.343616 2.288797 8.191618 0.000000 0.000000 0.000000 9.270350 9.563481 -67.221611 98.849089 -59.702019 67.655909 4.594723 -18.013635 -54.153506 0.000000 0.000000 0.000000 -7.125000 0.000000 0.000000 -73.952107 73.285603 56.572661 0.000000 0.000000 0.000000 -14.606169 -8.287508 31.627003 -121.863917 -55.788586 -87.204296 -40.400847 37.478193 -2.599536 0.000000 0.000000 0.000000 7.125000 0.000000 0.000000 -10.475056 26.528291 -4.778784
4.544988 17.077694 -11.538974 721.145150 -57.001885 7.618364 0.000000 0.000000 0.000000 -27.317821 -1.396080 -20.265178 2.416952 9.685150 27.963149 1.620380 -7.472002 -22.798770 0.147594 -2.475960 -6.822912 0.000000 0.000000 0.000000 14.935946 -8.596588 -31.073045 -13.798209 -19.051622 71.587207 0.311317 -10.413854 -7.488320 -0.663535 -5.209301 14.506693 1.837666 3.387704 -9.420310 -2.226278 4.389878 -1.345471 -2.773585 2.209225 4.187318 2.561532 1.220744 -8.321214 -4.187628 1.974268 22.642201 -1.662427 0.641627 8.458824 0.000000 0.000000 0.000000 11.949810 8.226841 -64.224570 98.946270 -59.695397 67.739765 6.981875 -17.184056 -54.137799 0.000000 0.000000 0.000000 -7.125000 0.000000 0.000000 -72.972621 74.146892 56.643758 0.000000 0.000000 0.000000 -16.089319 -6.307482 33.893077 -116.755880 -57.114144 -82.946731 -33.558778 41.737558 -2.151484 0.000000 0.000000 0.000000 7.125000 0.000000 0.000000 -5.353376 27.387456 -2.299971
4.420672 17.236210 -11.548366 719.186341 -46.485645 9.758584 0.000000 0.000000 0.000000 -25.653957 -10.043702 -15.123534 1.830602 8.501462 24.249498 1.319121 -8.705380 -20.570649 0.130287 -2.324098 -6.402380 0.000000 0.000000 0.000000 14.464852 -2.628068 -33.358530 -11.852357 -18.323482 65.515567 -0.133963 -5.888051 -11.442454 -0.121044 -2.149894 5.924297 2.124294 2.683576 -10.166733 -1.711191 3.393884 -1.279245 -2.501218 1.721804 4.590202 0.251455 -1.093290 -9.538066 -2.564799 -1.175983 24.470569 -1.062361 -0.887381 9.228562 0.000000 0.000000 0.000000 12.398937 8.648304 -60.344561 99.410978 -59.662585 68.140887 9.213369 -15.477574 -55.759391 0.000000 0.000000 0.000000 -7.125000 0.000000 0.000000 -78.325550 75.246111 63.018093 0.000000 0.000000 0.000000 -18.179563 -0.990837 36.874187 -115.036886 -57.493614 -81.500139 -31.213399 44.261927 -2.488743 0.000000 0.000000 0.000000 7.125000 0.000000 0.000000 -3.538166 27.066036 -1.543785
4.256208 17.375385 -11.590732 717.323938 -36.208545 11.389688 0.000000 0.000000 0.000000 -23.101498 -15.675107 -11.235033 1.323716 7.284609 20.562141 0.988500 -11.613119 -18.397781 0.210954 -2.956863 -8.158786 0.000000 0.000000 0.000000 14.063516 2.743531 -32.308380 -8.132719 -16.192876 53.002462 -0.514985 0.105899 -13.535825 -0.145633 1.606528 -4.436623 2.262127 1.988421 -10.071251 -1.013073 2.427577 -1.311306 -1.993380 1.240383 4.417642 -1.401706 -3.487548 -10.048685 -1.519529 -4.442000 25.418629 -0.799233 -2.438364 9.680268 0.000000 0.000000 0.000000 12.448967 9.127625 -57.038612 100.039438 -59.615484 68.683183 8.645042 -13.960032 -52.952969 0.000000 0.000000 0.000000 -7.125000 0.000000 0.000000 -68.142114 74.449976 52.507317 0.000000 0.000000 0.000000 -17.961021 5.403689 37.765324 -116.003939 -57.283538 -82.314623 -29.166934 47.778455 -1.919703 0.000000 0.000000 0.000000 7.125000 0.000000 0.000000 -1.991326 27.777071 -0.839306
4.059521 17.483739 -11.594825 717.094255 -25.715858 10.663265 0.000000 0.000000 0.000000 -21.434000 -16.802003 -9.090861 1.083107 6.613777 18.576421 0.044366 -20.229159 -14.663418 0.036380 -1.079516 -2.969077 0.000000 0.000000 0.000000 12.679214 7.523902 -26.356163 -4.252256 -12.455246 37.412502 -0.605064 6.805463 -13.975221 -0.517074 4.608705 -12.795830 2.073547 1.074208 -8.681818 -0.938751 1.262275 -1.129591 -1.989790 0.658619 3.763024 -3.008175 -5.577350 -9.530512 -0.035797 -7.439248 25.735126 -0.350763 -3.804172 9.829855 0.000000 0.000000 0.000000 13.198542 10.010527 -54.749958 102.374825 -59.412316 70.695721 11.623272 -11.405351 -53.324285 0.000000 0.000000 0.000000 -7.125000 0.000000 0.000000 -68.204759 75.677346 53.922664 0.000000 0.000000 0.000000 -14.824586 11.894227 36.794154 -117.580624 -56.920671 -83.638526 -27.250331 49.729150 1.531687 0.000000 0.000000 0.000000 7.125000 0.000000 0.000000 -0.541550 31.702218 -0.176314
3.819717 17.564794 -11.581552 715.806978 -15.483482 10.579988 0.000000 0.000000 0.000000 -18.449706 -19.759677 -7.643475 0.971000 6.272961 17.578673 -1.142592 -26.835972 -11.047728 0.008205 0.584085 1.605012 0.000000 0.000000 0.000000 14.052633 13.174461 -20.401175 -2.276484 -9.413641 27.102620 -0.667831 7.567403 -14.709425 -1.312254 7.250306 -20.461580 1.947769 0.188582 -6.992117 0.064324 0.103947 -1.710608 -1.018655 0.057608 2.158101 -4.255032 -7.369724 -8.361315 0.103315 -9.828258 26.790910 -0.357447 -5.009022 10.115171 0.000000 0.000000 0.000000 13.436868 12.214597 -53.388018 104.733883 -59.162981 72.723948 12.044139 -11.231908 -52.669654 0.000000 0.000000 0.000000 -7.125000 0.000000 0.000000 -65.535389 75.644485 51.449240 0.000000 0.000000 0.000000 -11.384600 17.710584 33.884441 -118.779126 -56.626384 -84.641161 -28.330517 49.429473 1.844714 0.000000 0.000000 0.000000 7.125000 0.000000 0.000000 -1.409849 32.073185 -0.446096
